<?xml version="1.0" standalone="no"?><!DOCTYPE svg PUBLIC "-//W3C//DTD SVG 1.1//EN" "http://www.w3.org/Graphics/SVG/1.1/DTD/svg11.dtd"><svg t="1629898299004" class="icon" viewBox="0 0 1024 1024" version="1.1" xmlns="http://www.w3.org/2000/svg" p-id="2221" width="32" height="32" data-spm-anchor-id="a313x.7781069.0.i8" xmlns:xlink="http://www.w3.org/1999/xlink"><defs><style type="text/css"></style></defs><path d="M760.96 712.96H372.48c-39.68 0-74.24-28.16-84.48-69.12L200.32 271.36H120.96c-17.92 0-32-14.08-32-32s14.08-32 32-32h104.96c14.72 0 27.52 10.24 31.36 24.96l93.44 396.8c3.2 11.52 12.16 19.84 22.4 19.84h387.84c10.24 0 19.2-8.32 22.4-19.84l53.76-251.52H436.48c-17.92 0-32-14.08-32-32s14.08-32 32-32h439.68c9.6 0 18.56 4.48 24.96 12.16 5.76 7.68 8.32 17.28 6.4 26.88l-62.08 290.56v0.64c-10.24 40.32-44.8 69.12-84.48 69.12z" fill="#428CFF" p-id="2222" data-spm-anchor-id="a313x.7781069.0.i9" class="selected"></path><path d="M417.28 821.12m-58.24 0a58.24 58.24 0 1 0 116.48 0 58.24 58.24 0 1 0-116.48 0Z" fill="#428CFF" p-id="2223" data-spm-anchor-id="a313x.7781069.0.i10" class="selected"></path><path d="M730.88 821.12m-58.24 0a58.24 58.24 0 1 0 116.48 0 58.24 58.24 0 1 0-116.48 0Z" fill="#428CFF" p-id="2224" data-spm-anchor-id="a313x.7781069.0.i11" class="selected"></path></svg>